<?xml version="1.0" encoding="UTF-8"?>
<svg version="1.1" xmlns="http://www.w3.org/2000/svg" width="512" height="512">
<path d="M0 0 C6.9076869 5.4995083 13.94764255 11.60931088 18.8125 19.01953125 C19.410625 19.89996094 20.00875 20.78039063 20.625 21.6875 C21.285 21.6875 21.945 21.6875 22.625 21.6875 C24.09365317 20.0042428 24.09365317 20.0042428 25.625 17.8125 C38.66055491 0.73512006 58.05203766 -11.9567959 79.40625 -15.875 C94.90950754 -17.77781431 110.81948205 -17.49784269 125.625 -12.3125 C126.66140625 -11.961875 127.6978125 -11.61125 128.765625 -11.25 C152.31928706 -2.37113263 169.48467435 15.83653297 179.84643555 38.328125 C181.23939862 41.42800334 182.54950943 44.4610283 183.625 47.6875 C186.09705498 48.9160905 188.50659074 49.97936229 191.0625 51 C213.98148469 60.65382308 230.92187226 76.80403601 240.83203125 99.70166016 C242.9044041 104.89152493 244.3661278 110.24661169 245.625 115.6875 C245.90174561 116.82264038 245.90174561 116.82264038 246.18408203 117.98071289 C246.68953517 121.08368018 246.56941656 123.84739528 246.37109375 126.984375 C246.32275391 128.1909375 246.27441406 129.3975 246.22460938 130.640625 C246.11712755 133.15803069 245.97425695 135.67419089 245.79492188 138.1875 C245.54202945 145.29275144 245.54202945 145.29275144 248.72851562 151.42358398 C251.26251141 153.6956118 253.8786849 155.68145364 256.625 157.6875 C268.10402659 168.54851989 277.15781298 185.3477021 277.76544189 201.39698792 C277.77741059 202.85650409 277.78395339 204.31607115 277.78613281 205.77563477 C277.79109772 206.57638931 277.79606262 207.37714386 277.80117798 208.2021637 C277.81574901 210.84442008 277.82259493 213.48661633 277.828125 216.12890625 C277.83236607 217.48966435 277.83236607 217.48966435 277.83669281 218.87791252 C277.85166907 223.68334111 277.860907 228.48873984 277.86523438 233.29418945 C277.87070116 238.23100278 277.89469567 243.16753782 277.92320633 248.10426426 C277.94194218 251.92297632 277.94704421 255.741623 277.94857025 259.56037712 C277.9515752 261.37863617 277.9595297 263.19689468 277.97275543 265.01510811 C278.0619823 278.23024483 277.13882166 289.95076639 270.875 301.875 C270.52356934 302.55643066 270.17213867 303.23786133 269.81005859 303.93994141 C264.3498749 314.26237069 256.40366773 324.16838818 246.625 330.6875 C246.28988239 333.28930592 246.28988239 333.28930592 246.5078125 336.33984375 C246.54390625 337.49967773 246.58 338.65951172 246.6171875 339.85449219 C246.66101563 341.09875977 246.70484375 342.34302734 246.75 343.625 C247.12215314 366.51823298 240.96979447 386.37625077 225.625 403.6875 C225.13515625 404.30753906 224.6453125 404.92757813 224.140625 405.56640625 C218.30089999 412.89886996 210.80904438 418.20355338 202.75 422.875 C202.15759521 423.21845459 201.56519043 423.56190918 200.95483398 423.91577148 C197.11801122 426.05835854 193.37539003 427.41383632 189.1875 428.6875 C184.35082459 430.56949986 182.67429597 432.6801995 180.61328125 437.23779297 C179.47298362 440.06080356 178.40857542 442.90709466 177.36767578 445.76806641 C174.17704349 454.01420416 168.3321538 461.05729569 162.625 467.6875 C162.10550781 468.29207031 161.58601563 468.89664062 161.05078125 469.51953125 C147.52896735 484.06314469 126.66219735 494.60976088 106.8269043 495.86450195 C77.83388994 496.48189795 55.44378818 490.9763054 33.7421875 471.0390625 C29.42888892 466.85151607 25.82619133 462.75605294 22.625 457.6875 C21.965 457.6875 21.305 457.6875 20.625 457.6875 C19.12188159 459.40396078 19.12188159 459.40396078 17.5625 461.625 C4.15578758 479.21614833 -15.75230402 491.96506133 -37.78710938 495.39013672 C-52.84663558 497.12056152 -68.01140528 496.71806774 -82.375 491.6875 C-83.41140625 491.336875 -84.4478125 490.98625 -85.515625 490.625 C-109.06928706 481.74613263 -126.23467435 463.53846703 -136.59643555 441.046875 C-137.98939862 437.94699666 -139.29950943 434.9139717 -140.375 431.6875 C-142.76313042 430.52798007 -145.09724128 429.52761049 -147.5625 428.5625 C-171.29540776 418.69553162 -188.56142421 401.40562645 -198.375 377.6875 C-203.1731841 364.90662271 -205.25842502 351.14772064 -203.375 337.625 C-202.87889958 332.50342693 -202.87889958 332.50342693 -205.2109375 328.109375 C-207.8322197 325.80264667 -210.56207833 323.75445349 -213.375 321.6875 C-224.37438172 311.55081489 -232.00337141 296.47983592 -234.375 281.6875 C-234.47739369 278.98297815 -234.53209449 276.3038401 -234.53613281 273.59936523 C-234.54109772 272.79861069 -234.54606262 271.99785614 -234.55117798 271.1728363 C-234.56574901 268.53057992 -234.57259493 265.88838367 -234.578125 263.24609375 C-234.58095238 262.33892168 -234.58377975 261.43174961 -234.58669281 260.49708748 C-234.60166907 255.69165889 -234.610907 250.88626016 -234.61523438 246.08081055 C-234.62070116 241.14399722 -234.64469567 236.20746218 -234.67320633 231.27073574 C-234.69194218 227.45202368 -234.69704421 223.633377 -234.69857025 219.81462288 C-234.7015752 217.99636383 -234.7095297 216.17810532 -234.72275543 214.35989189 C-234.8119823 201.14475517 -233.88882166 189.42423361 -227.625 177.5 C-227.27356934 176.81856934 -226.92213867 176.13713867 -226.56005859 175.43505859 C-221.0998749 165.11262931 -213.15366773 155.20661182 -203.375 148.6875 C-203.31313114 145.43806088 -203.31313114 145.43806088 -203.8125 141.625 C-205.72643255 120.00910968 -199.86769563 97.34864087 -186.3125 80.1875 C-185.01019516 78.67864004 -183.69834169 77.1779439 -182.375 75.6875 C-181.56482422 74.66462891 -181.56482422 74.66462891 -180.73828125 73.62109375 C-171.84488005 62.61739396 -157.77256183 53.46752607 -144.1484375 49.43359375 C-140.99966349 48.28553978 -139.74431495 47.26675839 -138.2734375 44.24609375 C-137.73918472 42.8824613 -137.23226774 41.50787285 -136.75 40.125 C-136.17809766 38.67123173 -135.60126592 37.21939305 -135.01953125 35.76953125 C-134.74318848 35.06650879 -134.4668457 34.36348633 -134.18212891 33.63916016 C-130.77592031 25.40285299 -125.14234299 18.38762824 -119.375 11.6875 C-118.85550781 11.08292969 -118.33601563 10.47835938 -117.80078125 9.85546875 C-87.74062105 -22.47624008 -35.07126164 -25.25130838 0 0 Z M-90.375 27.6875 C-91.40625 28.43 -92.4375 29.1725 -93.5 29.9375 C-101.40192847 37.49586636 -107.52682291 47.18254661 -110.578125 57.6953125 C-110.88810425 58.75939331 -110.88810425 58.75939331 -111.2043457 59.8449707 C-111.59981922 61.24635356 -111.9745805 62.65380446 -112.32495117 64.06713867 C-113.77081639 69.31866074 -115.85162657 71.72868162 -120.375 74.6875 C-122.97754107 75.6521166 -125.39758168 76.43392905 -128.0625 77.125 C-144.33021659 81.82828942 -157.14336138 91.39174387 -165.80859375 106.125 C-167.11608249 108.60806467 -168.27267133 111.10732411 -169.375 113.6875 C-169.69597656 114.39777344 -170.01695312 115.10804688 -170.34765625 115.83984375 C-172.59723077 121.79336887 -172.65309718 127.71161591 -172.6875 134 C-172.69305908 134.87253418 -172.69861816 135.74506836 -172.7043457 136.64404297 C-172.63695581 142.61697613 -172.33859959 146.63134016 -168.0546875 151.1171875 C-166.66636719 152.32761719 -166.66636719 152.32761719 -165.25 153.5625 C-164.26515625 154.43003906 -163.2803125 155.29757813 -162.265625 156.19140625 C-161.31171875 157.01511719 -160.3578125 157.83882812 -159.375 158.6875 C-157.91621647 159.95781653 -156.45782139 161.22857943 -155 162.5 C-154.3709375 163.04785156 -153.741875 163.59570312 -153.09375 164.16015625 C-144.59127274 171.71576673 -144.59127274 171.71576673 -144.07421875 176.4296875 C-144.06841797 177.98042969 -144.06841797 177.98042969 -144.0625 179.5625 C-144.04574219 180.59117187 -144.02898437 181.61984375 -144.01171875 182.6796875 C-144.43266788 186.16496521 -145.2247828 187.92360425 -147.375 190.6875 C-151.92447902 194.16651337 -155.81877765 194.32501435 -161.39453125 194.1484375 C-166.30935481 193.38834683 -168.86543874 191.06281575 -172.375 187.6875 C-173.93107582 186.24678572 -175.49337878 184.81303897 -177.05664062 183.38012695 C-178.12968934 182.3898058 -179.19507662 181.39110712 -180.25195312 180.38354492 C-182.62800142 178.14058343 -184.23245945 176.73501352 -187.375 175.6875 C-197.67563228 184.89102351 -203.39915402 195.94328869 -204.375 209.6875 C-204.52187434 214.21511672 -204.53886495 218.73976893 -204.54296875 223.26953125 C-204.54629715 224.56009933 -204.54962555 225.85066742 -204.55305481 227.18034363 C-204.55900784 229.90091794 -204.56089867 232.62146066 -204.56030273 235.34204102 C-204.56020131 238.79449487 -204.57385002 242.24674217 -204.59107494 245.69914722 C-204.60499702 249.03511084 -204.60428692 252.37103908 -204.60546875 255.70703125 C-204.61265427 256.92928909 -204.61983978 258.15154694 -204.62724304 259.4108429 C-204.57902387 277.76814232 -200.49667956 290.50750186 -187.375 303.6875 C-182.88820486 301.2766847 -179.51438944 298.18334044 -175.875 294.6875 C-166.05385635 285.25373324 -166.05385635 285.25373324 -158.375 285.3125 C-156.8590625 285.30089844 -156.8590625 285.30089844 -155.3125 285.2890625 C-150.8232665 285.89797449 -148.34777094 287.42523924 -145.58984375 291.00390625 C-143.42815728 295.77907862 -143.76715773 300.55926751 -144.375 305.6875 C-146.54779425 310.48575397 -150.12400286 313.42205848 -154.08984375 316.7578125 C-157.46611958 319.60888987 -160.71171121 322.60118079 -163.98046875 325.57421875 C-166.375 327.6875 -166.375 327.6875 -169.11328125 329.70703125 C-172.00237641 332.23686069 -172.21778226 334.01482263 -172.56787109 337.73950195 C-173.23084188 355.73011819 -170.20071562 370.28295145 -158.08984375 384.33984375 C-148.98622513 393.93399015 -139.63311091 399.06038125 -127.07421875 402.546875 C-121.0038721 404.41861864 -116.8541214 406.21593022 -113.375 411.6875 C-112.47097368 414.2442861 -111.69978988 416.70478365 -111 419.3125 C-106.15602172 435.86605628 -96.97858873 448.34563414 -82.375 457.6875 C-76.35206806 460.97565192 -70.16174951 463.56064348 -63.375 464.6875 C-62.56804687 464.8215625 -61.76109375 464.955625 -60.9296875 465.09375 C-44.05063946 467.25899231 -28.83981434 461.64065752 -15.375 451.6875 C-1.61610055 440.27827176 4.69332214 424.19727677 6.45439911 406.79783249 C6.98578719 400.22456361 6.86535939 393.62411744 6.8203125 387.03515625 C6.81657029 385.39749832 6.81372905 383.75983812 6.81173706 382.12217712 C6.80419554 377.86603325 6.78463175 373.61003157 6.7623291 369.35394287 C6.74166317 364.98923667 6.73269154 360.62450692 6.72265625 356.25976562 C6.70137426 347.7356127 6.66735696 339.21157417 6.625 330.6875 C5.87272125 331.10195374 5.1204425 331.51640747 4.34536743 331.94342041 C3.35692841 332.48577332 2.36848938 333.02812622 1.35009766 333.58691406 C0.37094391 334.1251178 -0.60820984 334.66332153 -1.61703491 335.21783447 C-6.67835858 337.91491463 -11.95694319 339.83964279 -17.375 341.6875 C-18.09816406 341.93628906 -18.82132813 342.18507813 -19.56640625 342.44140625 C-24.82333414 343.91252306 -30.20148404 343.91953561 -35.625 344 C-36.40641357 344.01780518 -37.18782715 344.03561035 -37.99291992 344.05395508 C-42.59112879 344.04753369 -45.71083108 343.75657579 -49.375 340.6875 C-52.20978427 337.0233247 -52.78512197 334.27677015 -52.75 329.6875 C-52.75773438 328.676875 -52.76546875 327.66625 -52.7734375 326.625 C-52.17818345 322.23646036 -50.67562241 319.7485971 -47.25390625 316.95703125 C-43.33258096 315.22781725 -39.54254165 314.86794185 -35.3125 314.375 C-22.2271065 312.54356818 -12.34506926 307.60094553 -3.375 297.6875 C6.12532212 284.91328252 6.77897018 271.55273486 6.79296875 256.140625 C6.79629715 254.85242859 6.79962555 253.56423218 6.80305481 252.23699951 C6.80900848 249.52062136 6.81089865 246.80427483 6.81030273 244.08789062 C6.81020142 240.64450294 6.82383919 237.20132285 6.84107494 233.75798416 C6.85501468 230.42719563 6.85428746 227.09644219 6.85546875 223.765625 C6.86624702 221.93998016 6.86624702 221.93998016 6.87724304 220.07745361 C6.83260453 203.08442676 4.09554544 189.47340572 -7.953125 176.87890625 C-17.62633 168.12621592 -28.29591674 165.55950822 -40.921875 164.3125 C-45.62581271 163.46110856 -48.23011445 162.16735206 -51.1640625 158.375 C-52.5606248 155.27553271 -52.77593996 153.0769878 -52.75 149.6875 C-52.75773438 148.676875 -52.76546875 147.66625 -52.7734375 146.625 C-52.17343107 142.20142319 -50.63985037 139.7308874 -47.2109375 136.90234375 C-43.46348677 135.29703083 -40.00898394 135.19590513 -36 135.25 C-35.20561523 135.25829834 -34.41123047 135.26659668 -33.59277344 135.27514648 C-20.20128702 135.65099623 -8.9884989 140.39233237 2.625 146.6875 C3.95645172 147.35791669 5.28941337 148.02535911 6.625 148.6875 C6.67165647 139.29817577 6.70703646 129.9088924 6.72862434 120.51947689 C6.73899344 116.15804339 6.75302447 111.7966901 6.77587891 107.43530273 C6.79785572 103.21423636 6.80962007 98.99324639 6.81475449 94.77212715 C6.81840624 93.17405561 6.82553477 91.57598751 6.83646011 89.97794914 C6.97859407 68.29535516 4.43718217 48.01806628 -11.125 31.4375 C-33.88088936 10.03821173 -65.87792719 8.5197721 -90.375 27.6875 Z M54.375 31.4375 C38.12449092 48.75143708 36.27591085 69.84709327 36.4296875 92.33984375 C36.43342971 93.97750168 36.43627095 95.61516188 36.43826294 97.25282288 C36.44580446 101.50896675 36.46536825 105.76496843 36.4876709 110.02105713 C36.50833683 114.38576333 36.51730846 118.75049308 36.52734375 123.11523438 C36.54862574 131.6393873 36.58264304 140.16342583 36.625 148.6875 C37.37727875 148.27304626 38.1295575 147.85859253 38.90463257 147.43157959 C39.89307159 146.88922668 40.88151062 146.34687378 41.89990234 145.78808594 C42.87905609 145.2498822 43.85820984 144.71167847 44.86703491 144.15716553 C49.92835858 141.46008537 55.20694319 139.53535721 60.625 137.6875 C61.34816406 137.43871094 62.07132812 137.18992187 62.81640625 136.93359375 C68.07333414 135.46247694 73.45148404 135.45546439 78.875 135.375 C80.04712036 135.34829224 80.04712036 135.34829224 81.24291992 135.32104492 C85.84112879 135.32746631 88.96083108 135.61842421 92.625 138.6875 C95.45978427 142.3516753 96.03512197 145.09822985 96 149.6875 C96.01160156 151.2034375 96.01160156 151.2034375 96.0234375 152.75 C95.42818345 157.13853964 93.92562241 159.6264029 90.50390625 162.41796875 C86.58258096 164.14718275 82.79254165 164.50705815 78.5625 165 C65.4771065 166.83143182 55.59506926 171.77405447 46.625 181.6875 C37.12467788 194.46171748 36.47102982 207.82226514 36.45703125 223.234375 C36.45370285 224.52257141 36.45037445 225.81076782 36.44694519 227.13800049 C36.44099152 229.85437864 36.43910135 232.57072517 36.43969727 235.28710938 C36.43979858 238.73049706 36.42616081 242.17367715 36.40892506 245.61701584 C36.39498532 248.94780437 36.39571254 252.27855781 36.39453125 255.609375 C36.38734573 256.82647156 36.38016022 258.04356812 36.37275696 259.29754639 C36.41739547 276.29057324 39.15445456 289.90159428 51.203125 302.49609375 C60.87633 311.24878408 71.54591674 313.81549178 84.171875 315.0625 C88.87581271 315.91389144 91.48011445 317.20764794 94.4140625 321 C95.8106248 324.09946729 96.02593996 326.2980122 96 329.6875 C96.01160156 331.2034375 96.01160156 331.2034375 96.0234375 332.75 C95.42343107 337.17357681 93.88985037 339.6441126 90.4609375 342.47265625 C86.71348677 344.07796917 83.25898394 344.17909487 79.25 344.125 C78.45561523 344.11670166 77.66123047 344.10840332 76.84277344 344.09985352 C63.45128702 343.72400377 52.2384989 338.98266763 40.625 332.6875 C39.29354828 332.01708331 37.96058663 331.34964089 36.625 330.6875 C36.57834353 340.07682423 36.54296354 349.4661076 36.52137566 358.85552311 C36.51100656 363.21695661 36.49697553 367.5783099 36.47412109 371.93969727 C36.45214428 376.16076364 36.44037993 380.38175361 36.43524551 384.60287285 C36.43159376 386.20094439 36.42446523 387.79901249 36.41353989 389.39705086 C36.27140593 411.07964484 38.81281783 431.35693372 54.375 447.9375 C66.06739547 458.93284881 80.6394116 465.02965686 96.625 465.6875 C110.644953 465.08057563 122.66115402 460.31573795 133.625 451.6875 C134.46160156 451.04941406 135.29820312 450.41132813 136.16015625 449.75390625 C146.73707465 440.88672743 152.40606201 428.34581228 155.62573242 415.20654297 C157.0425778 409.99166524 159.14338685 407.62609006 163.625 404.6875 C166.22754107 403.7228834 168.64758168 402.94107095 171.3125 402.25 C187.61778426 397.53584909 200.29265866 387.97466601 209.05859375 373.28515625 C214.02633824 363.95405162 215.87669057 355.31458776 215.9375 344.8125 C215.94583862 343.58092163 215.94583862 343.58092163 215.9543457 342.32446289 C215.88451358 336.50810344 215.47423902 332.62390853 211.3046875 328.2578125 C210.37914062 327.45085937 209.45359375 326.64390625 208.5 325.8125 C207.51515625 324.94496094 206.5303125 324.07742188 205.515625 323.18359375 C204.56171875 322.35988281 203.6078125 321.53617187 202.625 320.6875 C201.16621647 319.41718347 199.70782139 318.14642057 198.25 316.875 C197.6209375 316.32714844 196.991875 315.77929688 196.34375 315.21484375 C187.84127274 307.65923327 187.84127274 307.65923327 187.32421875 302.9453125 C187.32035156 301.91148437 187.31648437 300.87765625 187.3125 299.8125 C187.29574219 298.78382813 187.27898437 297.75515625 187.26171875 296.6953125 C187.68266788 293.21003479 188.4747828 291.45139575 190.625 288.6875 C195.17447902 285.20848663 199.06877765 285.04998565 204.64453125 285.2265625 C209.55935481 285.98665317 212.11543874 288.31218425 215.625 291.6875 C217.18107582 293.12821428 218.74337878 294.56196103 220.30664062 295.99487305 C221.37968934 296.9851942 222.44507662 297.98389288 223.50195312 298.99145508 C225.87800142 301.23441657 227.48245945 302.63998648 230.625 303.6875 C240.92078077 294.48831126 246.46055028 283.40643453 247.625 269.6875 C247.77876037 265.19269812 247.78891154 260.70027753 247.79296875 256.203125 C247.79629715 254.91114197 247.79962555 253.61915894 247.80305481 252.2880249 C247.8090143 249.56147425 247.81089805 246.83495514 247.81030273 244.10839844 C247.81020141 240.64806883 247.82383687 237.18794578 247.84107494 233.72766495 C247.85499987 230.38614938 247.85428712 227.04466909 247.85546875 223.703125 C247.86624702 221.86503265 247.86624702 221.86503265 247.87724304 219.98980713 C247.82912645 201.62108299 243.7559796 188.87683951 230.625 175.6875 C226.13820486 178.0983153 222.76438944 181.19165956 219.125 184.6875 C209.30385635 194.12126676 209.30385635 194.12126676 201.625 194.0625 C200.614375 194.07023438 199.60375 194.07796875 198.5625 194.0859375 C194.0732665 193.47702551 191.59777094 191.94976076 188.83984375 188.37109375 C186.67815728 183.59592138 187.01715773 178.81573249 187.625 173.6875 C189.79779425 168.88924603 193.37400286 165.95294152 197.33984375 162.6171875 C200.71611958 159.76611013 203.96171121 156.77381921 207.23046875 153.80078125 C209.625 151.6875 209.625 151.6875 212.36328125 149.66796875 C215.23245502 147.15558343 215.47304577 145.39756148 215.80200195 141.69555664 C216.11438736 131.00102348 215.79131335 121.7307984 211.625 111.6875 C211.29757812 110.8315625 210.97015625 109.975625 210.6328125 109.09375 C204.62808369 95.24342661 191.40160555 84.27017676 177.625 78.6875 C176.28975163 78.26890352 174.9494274 77.86628854 173.60546875 77.4765625 C172.89777344 77.2710376 172.19007813 77.0655127 171.4609375 76.85375977 C170.06179662 76.46056938 168.65678152 76.08754234 167.24609375 75.73803711 C161.99443164 74.29137477 159.5841394 72.21136419 156.625 67.6875 C155.66037877 65.08494643 154.87827632 62.66501824 154.1875 60 C149.42184851 43.45759939 140.19015747 31.00478151 125.625 21.6875 C119.60206806 18.39934808 113.41174951 15.81435652 106.625 14.6875 C105.81804687 14.5534375 105.01109375 14.419375 104.1796875 14.28125 C85.77137655 11.91983402 67.7877279 18.82437703 54.375 31.4375 Z " fill="#D45DFF" transform="translate(234.375,16.3125)"/>
</svg>
